<svg width="100" height="100" viewBox="0 0 100 100" xmlns="http://www.w3.org/2000/svg">
  <!-- Background with rounded corners -->
  <rect x="5" y="5" width="90" height="90" rx="15" ry="15" fill="#0066CC"/>
  
  <!-- NFC Symbol - stylized N with waves -->
  <g fill="white">
    <!-- Main outer arc -->
    <path d="M 25 30 Q 25 50 25 70 Q 50 70 75 70 Q 75 50 75 30 Q 50 30 25 30" 
          stroke="white" stroke-width="3" fill="none"/>
    
    <!-- Inner vertical line -->
    <rect x="42" y="25" width="6" height="50" rx="3" ry="3"/>
    
    <!-- Small connecting lines to represent signal -->
    <line x1="30" y1="35" x2="35" y2="35" stroke="white" stroke-width="2"/>
    <line x1="30" y1="45" x2="35" y2="45" stroke="white" stroke-width="2"/>
    <line x1="30" y1="55" x2="35" y2="55" stroke="white" stroke-width="2"/>
    <line x1="30" y1="65" x2="35" y2="65" stroke="white" stroke-width="2"/>
    
    <line x1="65" y1="35" x2="70" y2="35" stroke="white" stroke-width="2"/>
    <line x1="65" y1="45" x2="70" y2="45" stroke="white" stroke-width="2"/>
    <line x1="65" y1="55" x2="70" y2="55" stroke="white" stroke-width="2"/>
    <line x1="65" y1="65" x2="70" y2="65" stroke="white" stroke-width="2"/>
  </g>
</svg> 